<?xml version="1.0" encoding="UTF-8" standalone="no"?>
<svg
   width="64"
   height="64"
   viewBox="0 0 16 16"
   version="1.1"
   id="svg3"
   sodipodi:docname="logo.svg"
   inkscape:version="1.4.4 (dcaf3e7, 2026-05-05)"
   xmlns:inkscape="http://www.inkscape.org/namespaces/inkscape"
   xmlns:sodipodi="http://sodipodi.sourceforge.net/DTD/sodipodi-0.dtd"
   xmlns="http://www.w3.org/2000/svg"
   xmlns:svg="http://www.w3.org/2000/svg">
  <defs
     id="defs3" />
  <sodipodi:namedview
     id="namedview3"
     pagecolor="#505050"
     bordercolor="#eeeeee"
     borderopacity="1"
     inkscape:showpageshadow="0"
     inkscape:pageopacity="0"
     inkscape:pagecheckerboard="0"
     inkscape:deskcolor="#505050"
     inkscape:zoom="0.91938685"
     inkscape:cx="-150.10004"
     inkscape:cy="39.700372"
     inkscape:window-width="1451"
     inkscape:window-height="724"
     inkscape:window-x="0"
     inkscape:window-y="96"
     inkscape:window-maximized="0"
     inkscape:current-layer="svg3" />
  <g
     fill="currentColor"
     id="g3"
     style="fill:#ffffff;fill-opacity:1"
     transform="translate(0,-1.0188092)">
    <path
       d="m 2.1384871,3.6056223 a 0.5,0.5 0 1 0 0,-1 0.5,0.5 0 0 0 0,1 m 2,-0.5 a 0.5,0.5 0 1 1 -1,0 0.5,0.5 0 0 1 1,0 m 1,0.5 a 0.5,0.5 0 1 0 0,-1 0.5,0.5 0 0 0 0,1"
       id="path2"
       style="fill:#ffffff;fill-opacity:1" />
  </g>
  <g
     id="rect5"
     style="opacity:1"
     transform="translate(-0.15136707,-0.11718738)">
    <path
       style="baseline-shift:baseline;display:inline;overflow:visible;vector-effect:none;fill:#ffffff;fill-rule:evenodd;stroke-linecap:round;enable-background:accumulate;stop-color:#000000;stop-opacity:1"
       d="m 2.2675781,0.18359375 c -1.0934117,0 -1.98437497,0.89291645 -1.98437497,1.98632815 V 14.066406 c 0,1.093412 0.89096327,1.984375 1.98437497,1.984375 H 14.033203 c 1.093412,0 1.986328,-0.890963 1.986328,-1.984375 V 2.1699219 c 0,-1.0934117 -0.892916,-1.98632815 -1.986328,-1.98632815 z m 0,0.75 H 14.033203 c 0.690885,0 1.236328,0.54544345 1.236328,1.23632815 V 14.066406 c 0,0.690885 -0.545443,1.234375 -1.236328,1.234375 H 2.2675781 c -0.6908846,0 -1.234375,-0.54349 -1.234375,-1.234375 V 2.1699219 c 0,-0.6908847 0.5434904,-1.23632815 1.234375,-1.23632815 z"
       id="path6" />
  </g>
  <rect
     style="fill:#ffffff;fill-opacity:1;fill-rule:evenodd;stroke:none;stroke-width:0;stroke-linecap:round;stroke-dasharray:none;stroke-opacity:1"
     id="rect6"
     width="14.493382"
     height="0.75"
     x="0.82162029"
     y="3.2207515"
     ry="0" />
  <g
     id="g6"
     transform="matrix(0.75314212,0,0,0.66508226,0.79566127,3.730488)">
    <path
       fill="currentColor"
       d="m 9.7225525,5.3190724 c 0.06667,0.06667 0.133333,0.06667 0.266667,0.133334 0.066669,0 0.1999995,0.06667 0.3333325,0.133333 h 0.06667 q 0.2,-0.3 0.2,-0.6 c 0.06666,-0.4 -0.26667,-0.8 -0.6666695,-0.8 -0.4,0.06667 -0.666667,0.466667 -0.666667,0.866667 v 0.06667 c 0.133334,0 0.333334,0.06667 0.466667,0.2 M 12.722552,10.65241 c -0.2,-0.133334 -0.4,-0.133334 -0.666667,-0.2 -0.133333,-0.6000036 -0.333333,-1.1333376 -0.6,-1.6666706 -0.4,-0.8 -0.733333,-1.6 -0.933333,-2.466667 q -0.2,0.3 -0.5999995,0.4 c -0.066667,0.066667 -0.2,0.066667 -0.266667,0.133334 -0.2,0.133333 -0.466666,0.266666 -0.733333,0.266666 h -0.06667 c -0.266666,0 -0.466666,-0.133333 -0.6,-0.266666 -0.06667,-0.06667 -0.133333,-0.133334 -0.2,-0.133334 -0.06667,0 -0.06667,-0.06667 -0.133333,-0.06667 -0.06667,1 -0.666667,2.133333 -1,2.866666 -0.2,0.5333336 -0.333333,1.0666666 -0.333333,1.5999996 -0.533334,-0.8 -0.133334,-1.7999996 0.06667,-2.1999996 0.266666,-0.533329 0.266666,-0.599996 0.199999,-0.533329 -0.466666,0.733333 -1.4,2.3333326 -0.06667,3.1999996 1.4,0.866667 1.466666,1.733333 0.666666,1.666667 0.066671,0.133333 0.200004,0.266666 0.266671,0.333333 0.8,0.666667 1.933333,0.733333 2.7999995,0.2 0,-0.06667 0.06667,-0.2 0.06667,-0.266667 0.06667,-0.2 0.133333,-0.466666 0.133333,-0.666666 0.06667,-0.733334 0.06667,-1.466667 0.6,-1.733334 0.333333,-0.133333 0.8,-0.06667 1.066667,0.133334 0.06667,0.06667 0.133333,0.06667 0.2,0.133333 0.133333,0.06667 0.266666,0.06667 0.333333,0.06667 h 0.4 c 0.2,-0.266667 -0.06667,-0.533334 -0.6,-0.8 m -4.5999995,-5.1333336 0.06667,-0.06667 c 0.133327,-0.199999 0.333327,-0.266666 0.533327,-0.333333 v -0.133333 c 0,-0.4 -0.266667,-0.733333 -0.533333,-0.733333 -0.2,0.06667 -0.4,0.4 -0.4,0.8 0,0.2 0.06667,0.4 0.2,0.533333 0.06667,0 0.133333,-0.06667 0.133333,-0.06667"
       opacity="0.25"
       id="path2-3"
       style="fill:#fefefe;fill-opacity:1;stroke-width:0.666667" />
    <path
       fill="currentColor"
       d="m 6.9892195,12.585739 c 0,0 0,0.06667 0,0 -0.066667,-0.06667 -0.066667,-0.2 -0.133334,-0.266667 0.066667,0.133334 0.066667,0.2 0.133334,0.266667"
       opacity="0.25"
       id="path3"
       style="fill:#fefefe;fill-opacity:1;stroke-width:0.666667" />
    <path
       fill="currentColor"
       d="m 11.589219,15.652406 h -0.133334 c -0.4,-0.06667 -0.733333,-0.266667 -0.866666,-0.666667 -0.133334,-0.466667 -0.133334,-1 0.133333,-1.466667 0.06667,-0.2 0.133333,-0.466666 0.133333,-0.666666 0.06667,-0.733334 0.06667,-1.466667 0.6,-1.733334 0.333334,-0.133333 0.8,-0.06667 1.066667,0.133334 0.06667,0.06667 0.133333,0.06667 0.2,0.133333 0.133333,0.06667 0.266667,0.06667 0.333333,0.06667 0.266667,-0.06667 0.533334,0 0.733334,0.2 0.2,0.2 0.266666,0.4 0.333333,0.666666 0,0.133334 0.06667,0.333334 0.133333,0.4 0.333334,0.333334 0.466667,0.666667 0.4,0.866667 -0.06667,0.333333 -0.4,0.466667 -0.733333,0.666667 -0.333333,0.133333 -0.666667,0.333333 -0.933333,0.6 -0.333334,0.466666 -0.866667,0.733333 -1.4,0.8"
       opacity="0.5"
       id="path4"
       style="fill:#fefefe;fill-opacity:1;stroke-width:0.666667" />
    <path
       fill="currentColor"
       d="m 13.255885,11.585739 c -0.266666,0.333333 -0.666666,0.533333 -1.066666,0.533333 -0.4,-0.06667 -0.533334,-0.6 -0.466667,-1 0.06667,-0.466666 0.466667,-0.466666 1,-0.266666 0.533333,0.2 0.733333,0.466666 0.533333,0.733333 M 9.7225525,5.3857394 c 0.06667,0.06667 0.2,0.06667 0.266667,0.133333 0.1333325,-0.133333 0.1333325,-0.266666 0.1333325,-0.4 0,-0.266666 -0.1333325,-0.466666 -0.2666665,-0.466666 -0.133333,0 -0.333333,0.2 -0.333333,0.466666 v 0.2 c 0.066667,0.066667 0.133333,0.066667 0.2,0.066667 m -1.466667,0.133333 0.2,-0.2 v -0.2 c 0,-0.2 -0.133333,-0.4 -0.266666,-0.333333 -0.133334,0 -0.2,0.2 -0.2,0.4 0.06667,0.2 0.2,0.333333 0.266666,0.333333"
       id="path5"
       style="fill:#fefefe;fill-opacity:1;stroke-width:0.666667" />
    <path
       fill="currentColor"
       d="m 12.855885,8.1857394 c -0.533333,-0.866667 -1.333333,-1.4 -1.333333,-2.466667 0,-1.266666 0.133333,-3.5999997 -2.1999995,-3.3999997 -2.333333,0.2 -1.666667,2.6666667 -1.733333,3.5333337 0,0.733333 -0.333334,1.466666 -0.866667,2.066666 -0.06667,0.06667 -0.133333,0.2 -0.2,0.266667 -0.6,0.866667 -1.266667,1.9999996 -1.2,3.0666666 0.133333,-0.06667 0.266667,-0.06667 0.333333,-0.06667 0.533334,0.06667 0.8,0.6 1.133334,1.2 0.06667,0.06667 0.06667,0.2 0.133333,0.266667 l 0.4,0.6 0.06667,0.06667 c 0.8,0.06667 0.8,-0.8 -0.666667,-1.666666 -1.333333,-0.866667 -0.4,-2.4666666 0.06667,-3.1999996 0.06667,-0.06667 0.06667,0 -0.2,0.533333 -0.2,0.4 -0.6,1.3999996 -0.06667,2.1333326 0,-0.533333 0.133333,-1.066666 0.333333,-1.5999996 0.333334,-0.666666 0.933334,-1.866666 1,-2.866666 -0.06667,-0.133334 -0.2,-0.333334 -0.2,-0.533334 q 0,-0.2 0.2,-0.4 c 0.06667,0 0.133334,-0.06667 0.2,-0.133333 -0.133333,-0.133333 -0.266666,-0.333333 -0.266666,-0.533333 0,-0.4 0.2,-0.733334 0.466666,-0.733334 0.266667,0 0.466667,0.266667 0.533334,0.733334 v 0.133329 c 0.133333,-0.06667 0.333333,-0.06667 0.466666,0 v -0.06667 c -0.06667,-0.4 0.2,-0.8 0.666667,-0.866666 0.3999995,0.06667 0.7333325,0.4 0.6666665,0.8 q 0,0.3 -0.2,0.6 c 0.2,0.06667 0.333333,0.266666 0.333333,0.466666 0,0.133334 -0.06667,0.2 -0.133333,0.333334 0.266663,0.866669 0.53333,1.666669 0.93333,2.466669 0.266667,0.533334 0.466667,1.066667 0.6,1.6666666 0.2,0 0.466667,0.06667 0.666667,0.2 0.2,0.133333 0.4,0.2 0.533333,0.333333 0.06667,0.06667 0.06667,0.133334 0.133333,0.133334 0,0 0,0.06667 0.06667,0.06667 v 0.2 c 0.06667,0 0.2,0.06667 0.266667,0.133334 0.33333,-1.333338 -0.333337,-2.6000036 -0.933337,-3.4666706"
       id="path6-7"
       style="fill:#fefefe;fill-opacity:1;stroke-width:0.666667" />
    <path
       fill="currentColor"
       d="m 8.9225525,6.6524064 c -0.333333,0 -0.666667,-0.2 -0.933333,-0.466667 l -0.066667,-0.066667 c -0.06667,0 -0.06667,0 -0.06667,-0.06667 3e-6,-0.066663 0.06667,-0.066663 0.06667,-0.066663 0.06667,0 0.06667,0.06667 0.2,0.133333 q 0.3,0.4 0.8,0.4 c 0.333333,-0.066666 0.666667,-0.133333 0.933333,-0.333333 0.133334,-0.066667 0.2666665,-0.133333 0.4666665,-0.2 0.06667,0 0.06667,0 0.06667,0.06667 0,0.06667 0,0.06667 -0.06667,0.06667 -0.133333,0.06667 -0.266667,0.06667 -0.3999995,0.2 -0.333333,0.2 -0.666667,0.333334 -1,0.333334"
       opacity="0.7"
       id="path7"
       style="fill:#fefefe;fill-opacity:1;stroke-width:0.666667" />
    <path
       fill="currentColor"
       d="m 10.322552,5.5857394 c -0.133333,-0.06667 -0.2,-0.06667 -0.3333325,-0.133333 -0.06667,0 -0.2,-0.06667 -0.266667,-0.133334 -0.4,-0.4 -1.133333,-0.333333 -1.533333,0.133334 l -0.066667,0.066666 c 0,0 -0.133333,0.133334 -0.266667,0.2 q -0.2,0.2 -0.2,0.4 c 0.06667,0.266667 0.2,0.466667 0.466667,0.6 0.06667,0.06667 0.133333,0.133334 0.2,0.133334 0.133333,0.2 0.4,0.266666 0.6,0.266666 h 0.06667 c 0.266666,0 0.533333,-0.06667 0.733333,-0.266666 0.06666,-0.06667 0.13333,-0.133334 0.266664,-0.133334 0.3333325,-0.066666 0.6666655,-0.333333 0.7333325,-0.733333 0,-0.133333 -0.2,-0.333333 -0.4,-0.4 m -0.06667,0.533333 c -0.133333,0.06667 -0.2666655,0.06667 -0.3999995,0.2 q -0.4,0.3 -1,0.4 c -0.333333,0 -0.666666,-0.2 -0.933333,-0.466666 l -0.066664,-0.066667 c -0.06667,0 -0.06667,0 -0.06667,-0.06667 0,-0.06667 0.06667,-0.06667 0.06667,-0.06667 0.06667,0 0.06667,0.06667 0.2,0.133333 q 0.3,0.4 0.8,0.4 c 0.333334,-0.06666 0.666667,-0.133326 0.933334,-0.333326 0.133333,-0.066667 0.2666655,-0.133334 0.4666655,-0.2 0.06667,-0.066667 0.06667,-0.066667 0,0.066666 0.06667,-0.06667 0.06667,0 0,0 M 6.9225525,15.519072 c -0.4,0 -0.8,-0.133333 -1.133333,-0.333333 -0.333334,-0.133333 -0.666667,-0.266667 -1.066667,-0.266667 -0.466667,-0.06667 -0.8,-0.06667 -1,-0.4 -0.133333,-0.266666 -0.133333,-0.666666 0,-0.933333 v -0.466667 c -0.066667,-0.266666 -0.066667,-0.466666 0.066667,-0.733333 0.133333,-0.2 0.333333,-0.4 0.6,-0.466667 0.133333,0 0.266666,-0.06667 0.333333,-0.2 0.06667,-0.06667 0.133333,-0.133333 0.133333,-0.2 0.133334,-0.333333 0.533334,-0.533333 0.866667,-0.533333 0.6,0.06667 0.933333,0.733333 1.266667,1.466667 l 0.4,0.6 c 0.333333,0.466666 0.733333,0.866666 0.666666,1.333333 0,0.333333 -0.2,0.666667 -0.533333,0.8 -0.133333,0.266667 -0.4,0.333333 -0.6,0.333333"
       opacity="0.5"
       id="path8"
       style="fill:#fefefe;fill-opacity:1;stroke-width:0.666667" />
    <path
       fill="currentColor"
       d="m 10.522552,13.919072 c -0.8666665,0.466667 -1.9999995,0.4 -2.7999995,-0.266666 0.06667,0.133333 0.133333,0.2 0.2,0.333333 v 0.06667 c 0.06667,0.2 0.133333,0.333333 0.133333,0.533333 0,0.133333 -0.06667,0.2 -0.06667,0.333333 0.333333,0 0.733333,-0.133333 1.333333,-0.2 0.333333,0 0.7333325,0.06667 1.1999995,0.133334 -0.06667,-0.333334 -0.06667,-0.666667 0,-0.933334"
       id="path9"
       style="fill:#fefefe;fill-opacity:1;stroke-width:0.666667" />
  </g>
</svg>
